<mxfile host="app.diagrams.net" modified="2022-06-16T10:11:34.989Z" agent="5.0 (Windows NT 10.0; Win64; x64) AppleWebKit/537.36 (KHTML, like Gecko) Chrome/101.0.4951.67 Safari/537.36 OPR/87.0.4390.45" etag="_2Lu4wLgTNCXsdVGMVK_" version="20.0.1" type="github">
  <diagram id="6LReZvX_ArNRu8LRSOOK" name="Page-1">
    <mxGraphModel dx="1331" dy="731" grid="1" gridSize="10" guides="1" tooltips="1" connect="1" arrows="1" fold="1" page="1" pageScale="1" pageWidth="827" pageHeight="1169" math="0" shadow="0">
      <root>
        <mxCell id="0" />
        <mxCell id="1" parent="0" />
        <mxCell id="dHKub9uFGMocOK2gn8f4-3" value="" style="edgeStyle=orthogonalEdgeStyle;rounded=0;orthogonalLoop=1;jettySize=auto;html=1;" edge="1" parent="1" source="dHKub9uFGMocOK2gn8f4-1" target="dHKub9uFGMocOK2gn8f4-2">
          <mxGeometry relative="1" as="geometry" />
        </mxCell>
        <mxCell id="dHKub9uFGMocOK2gn8f4-1" value="Start" style="ellipse;whiteSpace=wrap;html=1;" vertex="1" parent="1">
          <mxGeometry x="40" y="20" width="120" height="60" as="geometry" />
        </mxCell>
        <mxCell id="dHKub9uFGMocOK2gn8f4-5" value="" style="edgeStyle=orthogonalEdgeStyle;rounded=0;orthogonalLoop=1;jettySize=auto;html=1;" edge="1" parent="1" source="dHKub9uFGMocOK2gn8f4-2" target="dHKub9uFGMocOK2gn8f4-4">
          <mxGeometry relative="1" as="geometry" />
        </mxCell>
        <mxCell id="dHKub9uFGMocOK2gn8f4-2" value="a,b,c,d" style="shape=parallelogram;perimeter=parallelogramPerimeter;whiteSpace=wrap;html=1;fixedSize=1;" vertex="1" parent="1">
          <mxGeometry x="40" y="120" width="120" height="60" as="geometry" />
        </mxCell>
        <mxCell id="dHKub9uFGMocOK2gn8f4-7" value="" style="edgeStyle=orthogonalEdgeStyle;rounded=0;orthogonalLoop=1;jettySize=auto;html=1;" edge="1" parent="1" source="dHKub9uFGMocOK2gn8f4-4" target="dHKub9uFGMocOK2gn8f4-6">
          <mxGeometry relative="1" as="geometry" />
        </mxCell>
        <mxCell id="dHKub9uFGMocOK2gn8f4-4" value="S=(a+b+c+d)/4" style="whiteSpace=wrap;html=1;" vertex="1" parent="1">
          <mxGeometry x="40" y="220" width="120" height="60" as="geometry" />
        </mxCell>
        <mxCell id="dHKub9uFGMocOK2gn8f4-9" value="" style="edgeStyle=orthogonalEdgeStyle;rounded=0;orthogonalLoop=1;jettySize=auto;html=1;" edge="1" parent="1" source="dHKub9uFGMocOK2gn8f4-6" target="dHKub9uFGMocOK2gn8f4-8">
          <mxGeometry relative="1" as="geometry" />
        </mxCell>
        <mxCell id="dHKub9uFGMocOK2gn8f4-6" value="S" style="shape=document;whiteSpace=wrap;html=1;boundedLbl=1;" vertex="1" parent="1">
          <mxGeometry x="40" y="320" width="120" height="80" as="geometry" />
        </mxCell>
        <mxCell id="dHKub9uFGMocOK2gn8f4-8" value="End" style="ellipse;whiteSpace=wrap;html=1;" vertex="1" parent="1">
          <mxGeometry x="40" y="440" width="120" height="60" as="geometry" />
        </mxCell>
        <mxCell id="dHKub9uFGMocOK2gn8f4-11" value="" style="endArrow=none;html=1;rounded=0;" edge="1" parent="1">
          <mxGeometry width="50" height="50" relative="1" as="geometry">
            <mxPoint x="280" y="720" as="sourcePoint" />
            <mxPoint x="280" as="targetPoint" />
            <Array as="points">
              <mxPoint x="280" y="320" />
            </Array>
          </mxGeometry>
        </mxCell>
        <mxCell id="dHKub9uFGMocOK2gn8f4-16" value="" style="edgeStyle=orthogonalEdgeStyle;rounded=0;orthogonalLoop=1;jettySize=auto;html=1;" edge="1" parent="1" source="dHKub9uFGMocOK2gn8f4-12" target="dHKub9uFGMocOK2gn8f4-15">
          <mxGeometry relative="1" as="geometry" />
        </mxCell>
        <mxCell id="dHKub9uFGMocOK2gn8f4-12" value="Start" style="ellipse;whiteSpace=wrap;html=1;" vertex="1" parent="1">
          <mxGeometry x="460" y="20" width="120" height="60" as="geometry" />
        </mxCell>
        <mxCell id="dHKub9uFGMocOK2gn8f4-18" value="" style="edgeStyle=orthogonalEdgeStyle;rounded=0;orthogonalLoop=1;jettySize=auto;html=1;" edge="1" parent="1" source="dHKub9uFGMocOK2gn8f4-15" target="dHKub9uFGMocOK2gn8f4-17">
          <mxGeometry relative="1" as="geometry" />
        </mxCell>
        <mxCell id="dHKub9uFGMocOK2gn8f4-15" value="N!" style="shape=parallelogram;perimeter=parallelogramPerimeter;whiteSpace=wrap;html=1;fixedSize=1;" vertex="1" parent="1">
          <mxGeometry x="460" y="120" width="120" height="60" as="geometry" />
        </mxCell>
        <mxCell id="dHKub9uFGMocOK2gn8f4-20" value="" style="edgeStyle=orthogonalEdgeStyle;rounded=0;orthogonalLoop=1;jettySize=auto;html=1;" edge="1" parent="1" source="dHKub9uFGMocOK2gn8f4-17" target="dHKub9uFGMocOK2gn8f4-19">
          <mxGeometry relative="1" as="geometry" />
        </mxCell>
        <mxCell id="dHKub9uFGMocOK2gn8f4-17" value="N=1" style="whiteSpace=wrap;html=1;" vertex="1" parent="1">
          <mxGeometry x="460" y="220" width="120" height="60" as="geometry" />
        </mxCell>
        <mxCell id="dHKub9uFGMocOK2gn8f4-26" style="edgeStyle=orthogonalEdgeStyle;rounded=0;orthogonalLoop=1;jettySize=auto;html=1;entryX=0.5;entryY=0;entryDx=0;entryDy=0;" edge="1" parent="1" source="dHKub9uFGMocOK2gn8f4-19" target="dHKub9uFGMocOK2gn8f4-22">
          <mxGeometry relative="1" as="geometry">
            <mxPoint x="520" y="530" as="targetPoint" />
            <Array as="points">
              <mxPoint x="600" y="360" />
              <mxPoint x="600" y="530" />
              <mxPoint x="520" y="530" />
            </Array>
          </mxGeometry>
        </mxCell>
        <mxCell id="dHKub9uFGMocOK2gn8f4-19" value="i=1....N" style="rhombus;whiteSpace=wrap;html=1;" vertex="1" parent="1">
          <mxGeometry x="455" y="320" width="130" height="80" as="geometry" />
        </mxCell>
        <mxCell id="dHKub9uFGMocOK2gn8f4-28" value="" style="edgeStyle=orthogonalEdgeStyle;rounded=0;orthogonalLoop=1;jettySize=auto;html=1;" edge="1" parent="1" source="dHKub9uFGMocOK2gn8f4-22" target="dHKub9uFGMocOK2gn8f4-27">
          <mxGeometry relative="1" as="geometry" />
        </mxCell>
        <mxCell id="dHKub9uFGMocOK2gn8f4-22" value="N" style="shape=document;whiteSpace=wrap;html=1;boundedLbl=1;" vertex="1" parent="1">
          <mxGeometry x="460" y="560" width="120" height="80" as="geometry" />
        </mxCell>
        <mxCell id="dHKub9uFGMocOK2gn8f4-23" value="" style="endArrow=none;html=1;rounded=0;entryX=0.5;entryY=1;entryDx=0;entryDy=0;" edge="1" parent="1" target="dHKub9uFGMocOK2gn8f4-19">
          <mxGeometry width="50" height="50" relative="1" as="geometry">
            <mxPoint x="520" y="430" as="sourcePoint" />
            <mxPoint x="440" y="370" as="targetPoint" />
            <Array as="points">
              <mxPoint x="520" y="420" />
            </Array>
          </mxGeometry>
        </mxCell>
        <mxCell id="dHKub9uFGMocOK2gn8f4-25" style="edgeStyle=orthogonalEdgeStyle;rounded=0;orthogonalLoop=1;jettySize=auto;html=1;exitX=0.5;exitY=1;exitDx=0;exitDy=0;entryX=0;entryY=0.5;entryDx=0;entryDy=0;" edge="1" parent="1" source="dHKub9uFGMocOK2gn8f4-24" target="dHKub9uFGMocOK2gn8f4-19">
          <mxGeometry relative="1" as="geometry" />
        </mxCell>
        <mxCell id="dHKub9uFGMocOK2gn8f4-24" value="N=N*i" style="rounded=0;whiteSpace=wrap;html=1;" vertex="1" parent="1">
          <mxGeometry x="460" y="410" width="120" height="60" as="geometry" />
        </mxCell>
        <mxCell id="dHKub9uFGMocOK2gn8f4-27" value="End" style="ellipse;whiteSpace=wrap;html=1;" vertex="1" parent="1">
          <mxGeometry x="460" y="680" width="120" height="60" as="geometry" />
        </mxCell>
      </root>
    </mxGraphModel>
  </diagram>
</mxfile>
